<svg height="512" viewBox="0 0 128 128" width="512" xmlns="http://www.w3.org/2000/svg"><g id="Circle_Grid" data-name="Circle Grid"><circle cx="64" cy="64" fill="#69b0ee" r="64"/></g><g id="icon"><path d="m39.434 51.652h52.93v22.084h-52.93z" fill="#eeefee" transform="matrix(.707 -.707 .707 .707 -25.03 64.96)"/><path d="m86.612 30.915h5.855v16.277h-5.855z" fill="#eeefee" transform="matrix(.707 .707 -.707 .707 53.84 -51.875)"/><path d="m84.266 31.196h22.084v4.177h-22.084z" fill="#eeefee" transform="matrix(.707 .707 -.707 .707 51.451 -57.644)"/><path d="m37.923 79.896h14.052v7.495h-14.052z" fill="#eeefee" transform="matrix(.707 .707 -.707 .707 72.31 -7.285)"/><path d="m27.754 102.024-4.347 1.976 19.459-19.459 1.186 1.185z" fill="#eeefee"/><g fill="#dbd8dd"><path d="m84.333 51.112h6.807v1.093h-6.807z" transform="matrix(.707 .707 -.707 .707 62.226 -46.909)"/><path d="m84.792 55.176h3.06v1.093h-3.06z" transform="matrix(.707 .707 -.707 .707 64.685 -44.718)"/><path d="m78.854 56.591h6.807v1.093h-6.807z" transform="matrix(.707 .707 -.707 .707 64.495 -41.43)"/><path d="m79.314 60.655h3.06v1.093h-3.06z" transform="matrix(.707 .707 -.707 .707 66.955 -39.239)"/><path d="m73.376 62.07h6.807v1.093h-6.807z" transform="matrix(.707 .707 -.707 .707 66.764 -35.951)"/><path d="m73.835 66.134h3.06v1.093h-3.06z" transform="matrix(.707 .707 -.707 .707 69.224 -33.76)"/><path d="m67.897 67.549h6.807v1.093h-6.807z" transform="matrix(.707 .707 -.707 .707 69.034 -30.472)"/><path d="m68.356 71.613h3.06v1.093h-3.06z" transform="matrix(.707 .707 -.707 .707 71.493 -28.282)"/><path d="m62.418 73.028h6.807v1.093h-6.807z" transform="matrix(.707 .707 -.707 .707 71.303 -24.993)"/><path d="m62.877 77.092h3.06v1.093h-3.06z" transform="matrix(.707 .707 -.707 .707 73.763 -22.803)"/><path d="m56.939 78.506h6.807v1.093h-6.807z" transform="matrix(.707 .707 -.707 .707 73.573 -19.514)"/><path d="m57.398 82.571h3.06v1.093h-3.06z" transform="matrix(.707 .707 -.707 .707 76.032 -17.324)"/><path d="m51.46 83.985h6.807v1.093h-6.807z" transform="matrix(.707 .707 -.707 .707 75.842 -14.036)"/><path d="m72.384 41.132h27.285v3.531h-27.285z" transform="matrix(.707 .707 -.707 .707 55.53 -48.265)"/></g></g></svg>